<?xml version="1.0" encoding="utf-8"?>
<svg class="icon" width="64px" height="64px" viewBox="0 0 1024 1024" version="1.1" xmlns="http://www.w3.org/2000/svg">
  <path d="M 470.132 62 C 497.905 62 525.68 62 553.403 62 C 554.916 62.583 557.845 62.129 559.992 62.421 C 564.337 62.55 568.679 62.712 573.076 62.907 C 574.683 62.907 576.246 62.94 577.907 63.037 C 579.664 63.166 581.422 63.296 583.227 63.489 C 587.083 63.877 590.988 63.683 594.451 64.103 C 596.21 64.103 597.969 64.2 599.775 64.233 C 604.75 64.816 610.172 64.75 615.442 65.334 C 626.72 66.336 638.091 67.34 649.368 68.343 C 659.421 69.734 669.721 70.382 679.726 71.869 C 701.203 75.04 722.78 77.953 742.401 82.355 C 747.673 83.584 752.503 84.36 757.727 85.461 C 773.297 88.794 788.772 93.034 802.728 97.726 C 811.319 100.606 819.96 103.162 827.672 106.56 C 832.795 108.858 838.069 110.896 843.194 113.163 C 845.781 114.359 848.269 115.945 850.809 117.336 C 863.987 124.196 876.433 132.643 883.462 143.58 C 886.83 149.017 891.077 156.977 888.832 164.937 C 888.684 165.908 888.588 166.847 888.44 167.784 C 887.071 171.378 885.9 174.614 883.95 177.622 C 878.337 186.844 866.037 196.358 855.052 202.216 C 853.49 203.09 852.028 203.995 850.465 204.935 C 849.147 205.549 847.732 206.165 846.461 206.811 C 840.897 209.594 835.04 212.281 829.085 214.805 C 823.228 217.361 816.884 219.432 810.439 221.567 C 802.091 224.287 793.355 227.327 784.374 229.723 C 776.272 231.858 768.171 233.703 759.63 235.709 C 746.94 238.783 733.221 241.242 719.752 243.896 C 713.65 245.061 707.255 245.642 701.302 246.905 C 699.349 247.131 697.396 247.326 695.445 247.618 C 688.025 248.783 679.627 249.623 671.966 250.983 C 662.689 251.987 653.465 253.023 644.191 253.992 C 641.068 254.252 637.993 254.478 634.918 254.705 C 627.206 255.838 618.417 255.87 610.512 256.841 C 608.315 256.938 606.121 257.035 603.924 257.165 C 599.188 257.65 593.816 257.65 589.131 258.201 C 587.375 258.265 585.715 258.265 583.958 258.297 C 579.907 258.751 574.392 259.042 570.144 258.978 C 568.679 259.042 567.264 259.14 565.8 259.301 C 562.089 259.366 558.382 259.464 554.671 259.657 C 550.131 259.755 545.643 259.851 541.102 260.014 C 531.34 260.046 521.479 260.111 511.716 260.176 C 504.395 260.176 497.123 260.014 490.193 260.014 C 483.896 260.014 477.16 260.207 471.45 259.657 C 467.009 259.464 462.566 259.366 458.174 259.301 C 444.944 258.492 430.302 258.492 417.417 257.036 C 413.706 256.842 410.093 256.647 406.383 256.421 C 394.378 254.998 381.589 254.641 370.215 252.893 C 367.335 252.701 364.408 252.376 361.478 252.182 C 349.569 250.24 337.415 249.463 325.699 247.49 C 299.1 242.928 272.836 238.753 249.214 232.25 C 242.136 230.34 235.35 228.819 228.519 226.78 C 192.006 215.714 157.4 201.928 139.682 178.401 C 138.121 176.396 137.145 174.002 136.12 171.736 C 135.534 170.506 135.534 168.952 134.509 167.949 C 134.509 166.332 134.509 164.778 134.509 163.192 C 134.509 157.885 134.315 153.225 136.56 149.472 C 138.122 146.978 138.904 144.617 140.465 142.352 C 141.833 140.281 143.884 138.307 145.738 136.463 C 151.595 130.67 157.891 125.201 166.094 120.864 C 170.045 118.827 173.56 116.302 177.953 114.458 C 182.152 112.679 186.251 110.478 190.352 108.601 C 197.431 105.366 205.189 102.743 213.001 100.155 C 215.149 99.378 217.246 98.666 219.345 97.889 C 224.618 96.562 229.645 94.782 234.771 93.229 C 242.874 90.899 250.878 89.119 259.372 87.081 C 264.838 85.722 270.793 84.071 276.552 83.067 C 282.604 81.999 288.608 80.479 294.516 79.476 C 302.518 78.148 310.525 76.92 318.431 75.398 C 322.044 74.783 325.363 74.719 328.975 74.007 C 339.615 71.968 351.769 70.934 363.044 69.478 C 367.926 68.863 372.416 68.798 377.248 68.151 C 386.378 66.888 396.625 66.759 405.998 65.465 C 408.146 65.336 410.392 65.24 412.487 65.109 C 416.639 64.656 421.518 64.559 425.863 64.106 C 427.472 64.042 429.083 64.042 430.696 63.976 C 433.573 63.652 436.99 63.782 440.068 63.49 C 444.018 63.07 448.411 63.297 452.756 62.908 C 458.176 62.294 464.616 62.294 470.133 62.228 C 470.132 62.129 470.132 62.097 470.132 62 Z" fill="#2c7dd5" style=""/>
  <path d="M 133.243 231.866 C 133.44 231.905 133.732 231.905 133.928 231.905 C 135.977 242.569 147.204 249.915 156.379 255.153 C 182.443 270.15 214.708 281.227 249.023 289.669 C 256.733 291.591 265.177 293.55 272.939 295.697 C 277.235 296.903 281.87 297.356 285.972 298.485 C 288.95 299.278 291.683 299.464 294.709 300.068 C 301.152 301.425 308.229 302.63 314.771 304.024 C 316.967 304.476 318.627 304.476 320.822 304.89 C 325.656 305.644 331.121 306.774 336.001 307.528 C 345.764 309.035 355.574 310.167 365.287 311.673 C 377.636 313.556 390.477 314.084 402.97 315.818 C 408.193 316.42 413.463 316.42 418.392 317.099 C 419.907 317.137 421.47 317.212 423.031 317.249 C 427.96 317.889 433.818 317.889 438.797 318.531 C 448.559 318.983 458.272 319.473 468.083 319.925 C 472.329 320.452 477.258 319.887 481.163 320.34 C 484.19 320.34 487.116 320.414 490.142 320.414 C 496.391 321.168 504.788 320.602 511.619 320.602 C 518.501 320.602 526.116 321.169 532.558 320.414 C 535.781 320.037 539.245 320.452 542.127 320.075 C 546.469 320.037 550.814 319.925 555.159 319.885 C 559.259 319.659 563.31 319.471 567.409 319.207 C 568.337 319.207 569.314 319.207 570.242 319.207 C 574.193 318.755 578.783 319.018 583.078 318.454 C 594.889 317.549 606.704 316.645 618.514 315.703 C 624.665 314.76 631.499 314.572 637.649 313.743 C 647.754 312.348 658.54 311.293 668.302 309.748 C 670.89 309.333 673.575 309.108 676.21 308.843 C 685.924 306.884 696.124 306.056 705.837 304.02 C 722.775 300.517 739.615 297.427 756.063 293.734 C 769.632 290.643 783.494 286.95 795.99 282.844 C 798.043 282.128 799.894 281.826 801.946 281.223 C 807.119 279.753 812.587 277.719 817.465 275.871 C 819.173 275.268 820.784 275.08 822.443 274.364 C 836.891 268.561 850.949 262.834 863.543 255.788 C 871.351 251.341 878.87 245.879 883.749 239.247 C 884.384 238.192 885.017 237.099 885.655 236.08 C 886.043 234.951 886.093 232.577 886.875 231.899 C 887.265 231.672 887.559 231.899 887.851 232.049 C 888.632 236.27 887.946 242.451 887.946 247.348 C 887.946 257.598 887.946 267.847 887.946 278.134 C 887.946 309.673 887.946 341.249 887.946 372.864 C 887.946 381.379 887.946 390.046 887.946 398.562 C 887.946 403.8 888.385 409.34 887.263 413.785 C 885.118 422.188 881.065 429.084 875.843 435.113 C 874.766 436.282 874.036 437.713 872.718 438.805 C 869.449 441.708 866.177 444.684 862.956 447.697 C 861.589 448.639 860.224 449.58 858.905 450.598 C 855.441 453.199 851.877 455.573 847.971 457.833 C 834.842 465.522 820.735 473.207 804.724 478.52 C 802.527 479.311 800.331 480.253 798.135 481.12 C 792.035 483.041 785.983 485.227 779.88 487.225 C 771.436 489.976 762.992 491.971 754.108 494.308 C 738.685 498.339 722.186 502.221 705.592 505.235 C 686.115 508.779 666.008 511.264 645.507 514.241 C 634.232 515.334 622.909 516.503 611.583 517.632 C 610.119 517.632 608.655 517.745 607.288 517.745 C 599.967 518.762 591.474 518.725 583.955 519.666 C 579.761 520.196 575.464 519.856 571.606 520.306 C 566.287 521.023 560.723 520.382 555.746 521.023 C 548.13 521.097 540.566 521.324 533 521.437 C 525.921 522.267 517.624 521.739 510.058 521.739 C 502.639 521.739 494.49 522.267 487.703 521.437 C 481.941 521.324 476.281 521.211 470.522 521.099 C 468.716 521.099 466.911 521.099 465.152 521.024 C 455.096 519.818 443.772 520.498 433.962 519.291 C 431.179 519.179 428.397 518.951 425.664 518.913 C 414.388 517.33 402.186 517.256 391.157 515.747 C 387.738 515.483 384.321 515.145 380.902 514.881 C 371.631 513.712 362.259 512.507 352.986 511.339 C 328.092 507.006 303.394 503.764 280.793 497.811 C 271.959 495.514 263.368 494.043 254.877 491.443 C 244.725 488.165 234.618 485.074 224.663 481.872 C 221.246 480.704 217.683 479.198 214.461 477.917 C 210.653 476.259 207.042 475.052 203.283 473.583 C 196.401 470.831 189.859 467.29 183.71 464.05 C 174.729 459.339 163.991 453.499 157.304 447.131 C 155.985 446.114 154.62 445.059 153.301 444.041 C 148.226 438.916 142.955 433.755 139.097 427.65 C 137.34 424.976 135.828 421.771 134.851 418.795 C 134.314 417.174 134.265 415.515 133.24 414.31 C 133.24 395.621 133.24 376.931 133.24 358.279 C 133.243 316.197 133.243 273.994 133.243 231.866 Z" fill="#2c7dd5" style=""/>
  <path d="M 139.018 454.532 C 139.215 454.613 139.507 454.613 139.703 454.613 C 141.752 466.29 152.978 474.25 162.154 480.068 C 188.218 496.488 220.483 508.533 254.798 517.816 C 262.507 519.919 270.952 522.023 278.714 524.376 C 283.01 525.696 287.645 526.274 291.747 527.512 C 294.725 528.336 297.458 528.502 300.484 529.203 C 306.926 530.689 314.004 532.008 320.546 533.576 C 322.742 534.029 324.402 534.029 326.597 534.486 C 331.43 535.308 336.896 536.587 341.776 537.373 C 351.539 539.065 361.349 540.22 371.062 541.911 C 383.411 544.016 396.251 544.551 408.745 546.409 C 413.967 547.15 419.237 547.15 424.167 547.852 C 425.682 547.934 427.245 547.976 428.806 548.059 C 433.735 548.719 439.593 548.719 444.572 549.42 C 454.334 549.915 464.047 550.41 473.858 550.945 C 478.104 551.524 483.033 550.904 486.938 551.4 C 489.965 551.4 492.891 551.442 495.917 551.442 C 502.166 552.309 510.563 551.689 517.394 551.689 C 524.276 551.689 531.891 552.309 538.332 551.442 C 541.556 551.071 545.02 551.524 547.902 551.112 C 552.244 551.07 556.589 550.945 560.933 550.904 C 565.034 550.658 569.084 550.41 573.184 550.204 C 574.112 550.204 575.089 550.204 576.017 550.204 C 579.968 549.625 584.558 549.997 588.853 549.338 C 600.663 548.39 612.479 547.357 624.289 546.285 C 630.44 545.296 637.273 545.131 643.424 544.18 C 653.529 542.655 664.315 541.541 674.077 539.768 C 676.665 539.396 679.35 539.107 681.985 538.819 C 691.699 536.715 701.899 535.808 711.612 533.58 C 728.549 529.742 745.39 526.278 761.838 522.275 C 775.407 518.892 789.269 514.85 801.765 510.311 C 803.818 509.568 805.669 509.238 807.721 508.537 C 812.894 506.97 818.362 504.7 823.24 502.72 C 824.948 502.019 826.559 501.896 828.218 501.111 C 842.665 494.716 856.724 488.528 869.317 480.772 C 877.126 475.946 884.645 469.881 889.524 462.621 C 890.159 461.464 890.792 460.228 891.43 459.196 C 891.818 457.917 891.867 455.317 892.65 454.617 C 893.04 454.285 893.333 454.617 893.626 454.697 C 894.407 459.318 893.721 466.166 893.721 471.448 C 893.721 482.67 893.721 493.893 893.721 505.234 C 893.721 539.723 893.721 574.338 893.721 608.909 C 893.721 618.275 893.721 627.722 893.721 637.046 C 893.721 642.78 894.16 648.845 893.038 653.712 C 890.893 662.913 886.84 670.503 881.618 677.063 C 880.541 678.383 879.811 679.868 878.493 681.106 C 875.224 684.323 871.952 687.581 868.731 690.841 C 867.364 691.872 865.999 692.902 864.68 693.976 C 861.216 696.823 857.652 699.504 853.746 701.939 C 840.617 710.355 826.51 718.73 810.498 724.589 C 808.302 725.455 806.106 726.487 803.91 727.477 C 797.81 729.58 791.757 731.891 785.654 734.078 C 777.211 737.13 768.767 739.359 759.883 741.875 C 744.46 746.29 727.96 750.496 711.367 753.798 C 691.89 757.715 671.783 760.481 651.281 763.656 C 640.007 764.895 628.684 766.174 617.358 767.372 C 615.894 767.452 614.43 767.578 613.063 767.578 C 605.742 768.648 597.249 768.648 589.73 769.639 C 585.536 770.175 581.239 769.846 577.381 770.383 C 572.062 771.084 566.498 770.424 561.521 771.084 C 553.905 771.207 546.341 771.455 538.774 771.537 C 531.696 772.485 523.399 771.949 515.833 771.949 C 508.414 771.949 500.264 772.486 493.477 771.537 C 487.716 771.456 482.056 771.331 476.297 771.207 C 474.491 771.164 472.686 771.164 470.927 771.084 C 460.871 769.805 449.547 770.547 439.737 769.185 C 436.954 769.142 434.172 768.896 431.439 768.815 C 420.163 767.123 407.961 766.999 396.932 765.348 C 393.513 764.978 390.096 764.69 386.677 764.441 C 377.406 763.081 368.034 761.76 358.761 760.522 C 333.867 755.777 309.169 752.231 286.568 745.793 C 277.733 743.195 269.143 741.588 260.652 738.739 C 250.5 735.234 240.393 731.767 230.438 728.261 C 227.021 727.025 223.458 725.334 220.236 723.89 C 216.428 722.114 212.817 720.837 209.058 719.144 C 202.176 716.175 195.634 712.337 189.484 708.749 C 180.504 703.59 169.766 697.197 163.079 690.183 C 161.76 689.151 160.395 687.957 159.076 686.842 C 154 681.231 148.73 675.62 144.872 668.937 C 143.115 665.922 141.603 662.459 140.626 659.2 C 140.089 657.426 140.04 655.61 139.015 654.25 C 139.015 633.87 139.015 613.366 139.015 592.945 C 139.018 546.817 139.018 500.652 139.018 454.532 Z" fill="#2c7dd5" style=""/>
  <text x="202.631" y="833.7" style="white-space: pre; fill: rgb(51, 51, 51); font-size: 24px;" transform="matrix(4.137311, 0, 0, 5.161247, -685.295288, -3384.304199)">Database Layer</text>
</svg>