<?xml version="1.0" encoding="utf-8"?>
<svg class="icon" width="64px" height="64px" viewBox="0 0 1024 1024" version="1.1" xmlns="http://www.w3.org/2000/svg">
  <path d="M 995.556 491.462 L 995.556 566.026 C 995.556 574.799 984.178 583.571 955.733 592.343 C 904.533 614.274 637.156 697.61 580.267 719.541 C 523.378 741.471 489.244 741.471 449.422 723.927 C 403.911 706.382 119.467 618.66 68.267 601.115 C 45.511 592.343 28.444 583.571 28.444 574.799 L 28.444 500.235 C 28.444 509.007 39.822 517.779 68.267 526.551 C 119.467 544.096 403.911 631.818 449.422 649.363 C 494.933 666.907 523.378 666.907 580.267 644.977 C 637.156 623.046 904.533 539.71 955.733 517.779 C 984.178 504.621 995.556 495.848 995.556 491.462 Z M 28.444 324.79 L 28.444 250.225 C 28.444 241.453 39.822 237.067 68.267 228.295 C 113.778 210.75 398.222 127.414 460.8 109.869 C 523.378 92.325 540.444 92.325 591.644 109.869 C 642.844 123.028 910.222 206.364 955.733 219.523 C 978.489 228.295 995.556 232.681 995.556 241.453 L 995.556 316.017 C 995.556 324.79 984.178 333.562 955.733 342.334 C 904.533 364.265 637.156 447.601 580.267 469.532 C 523.378 491.462 489.244 491.462 449.422 473.918 C 403.911 456.373 119.467 368.651 68.267 351.106 C 45.511 342.334 28.444 333.562 28.444 324.79 Z M 597.333 285.314 L 375.467 311.631 L 529.067 359.879 L 597.333 285.314 Z M 739.556 201.978 L 591.644 245.839 L 722.489 285.314 L 739.556 280.928 L 870.4 241.453 L 739.556 201.978 Z M 409.6 188.82 L 506.311 197.592 L 534.756 237.067 L 557.511 197.592 L 642.844 188.82 L 580.267 171.275 L 597.333 140.572 L 529.067 158.117 L 460.8 136.186 L 483.556 166.889 L 409.6 188.82 Z M 193.422 245.839 C 193.422 267.77 244.622 280.928 312.889 280.928 C 381.156 280.928 432.356 263.384 432.356 245.839 C 432.356 228.295 381.156 210.75 312.889 210.75 C 250.311 210.75 193.422 228.295 193.422 245.839 Z M 955.733 390.581 C 904.533 412.512 637.156 495.848 580.267 517.779 C 523.378 539.71 489.244 539.71 449.422 522.165 C 403.911 504.621 119.467 416.898 68.267 399.354 C 45.511 394.968 28.444 386.195 28.444 377.423 L 28.444 451.987 C 28.444 460.759 39.822 469.532 68.267 478.304 C 119.467 495.848 403.911 583.571 449.422 601.115 C 494.933 618.66 523.378 618.66 580.267 596.729 C 637.156 574.799 904.533 491.462 955.733 469.532 C 984.178 460.759 995.556 451.987 995.556 443.215 L 995.556 368.651 C 995.556 373.037 984.178 381.809 955.733 390.581 Z" fill="#31C5B3" style=""/>
  <text x="221.763" y="897.039" style="white-space: pre; fill: rgb(51, 51, 51); font-size: 24px;" transform="matrix(5.940158, 0, 0, 6.043992, -1207.120361, -4505.339355)">Cache Layer<tspan x="221.76300048828125" dy="1em">​</tspan></text>
</svg>