<?xml version="1.0" encoding="utf-8"?>
<svg class="icon" width="64px" height="64px" viewBox="0 0 1024 1024" version="1.1" xmlns="http://www.w3.org/2000/svg">
  <path d="M 830.27 599.43 L 756.468 599.43 C 742.265 599.43 733.388 588.915 740.49 580.502 C 743.786 576.598 749.877 574.193 756.468 574.193 L 830.27 574.193 L 830.27 281.318 C 830.27 271.605 845.646 265.534 857.946 270.39 C 863.655 272.644 867.171 276.81 867.171 281.318 L 867.171 574.193 C 867.171 588.131 850.65 599.43 830.27 599.43 Z M 184.505 334.442 C 174.315 334.442 166.054 328.793 166.054 321.824 L 166.054 145.165 C 166.054 131.227 182.575 119.928 202.955 119.928 L 590.414 119.928 C 604.618 119.928 613.495 130.443 606.393 138.856 C 603.097 142.76 597.006 145.165 590.414 145.165 L 202.955 145.165 L 202.955 321.824 C 202.955 328.793 194.694 334.442 184.505 334.442 Z" fill="#23AC38" style=""/>
  <path d="M 30.353 639.593 L 694.57 639.593 L 694.57 662.768 C 694.57 670.108 681.022 676.058 664.311 676.058 L 60.612 676.058 C 43.901 676.058 30.353 670.108 30.353 662.768 L 30.353 639.593 Z" fill="#D3EED7" style=""/>
  <path d="M 31.335 618.641 L 695.551 618.641 L 695.551 637.091 L 31.335 637.091 Z" fill="#23AC38"/>
  <path d="M 677.574 615.259 L 50.259 615.259 C 29.879 615.259 13.358 605.973 13.358 594.517 L 13.358 366.355 C 13.358 354.9 29.879 345.613 50.259 345.613 L 677.574 345.613 C 697.954 345.613 714.475 354.9 714.475 366.355 L 714.475 594.517 C 714.475 605.973 697.954 615.259 677.574 615.259 Z M 50.259 366.355 L 50.259 594.517 L 677.574 594.517 L 677.574 366.355 Z" fill="#23AC38" style=""/>
  <path d="M 195.475 716.292 L 490.682 716.292 L 490.682 737.227 L 195.475 737.227 L 195.475 716.292 Z" fill="#23AC38" style=""/>
  <path d="M 306.954 684.039 L 380.755 684.039 L 380.755 736.376 L 306.954 736.376 L 306.954 684.039 Z" fill="#23AC38" style=""/>
  <path d="M 81.42 399.311 L 624.25 399.311 L 624.25 563.152 L 81.42 563.152 Z M 660.438 188.659 L 1004.23 188.659 L 1004.23 206.214 C 1004.23 212.678 996.129 217.916 986.137 217.916 L 678.533 217.916 C 668.539 217.916 660.438 212.678 660.438 206.214 L 660.438 188.659 Z" fill="#D3EED7" style=""/>
  <path d="M 657.723 171.275 L 1008.282 171.275 L 1008.282 189.726 L 657.723 189.726 Z" fill="#23AC38"/>
  <path d="M 981.203 226.247 L 667.546 226.247 C 652.261 226.247 639.87 216.378 639.87 204.204 L 639.87 27.863 C 639.87 15.69 652.261 5.821 667.546 5.821 L 981.203 5.821 C 996.488 5.821 1008.879 15.69 1008.879 27.863 L 1008.879 204.204 C 1008.879 216.378 996.488 226.247 981.203 226.247 Z M 667.546 20.516 C 662.451 20.516 658.32 23.806 658.32 27.863 L 658.32 204.204 C 658.32 208.262 662.451 211.551 667.546 211.551 L 981.203 211.551 C 986.298 211.551 990.429 208.262 990.429 204.204 L 990.429 27.863 C 990.429 23.806 986.298 20.516 981.203 20.516 Z" fill="#23AC38" style=""/>
  <path d="M830.27027 267.531532h36.900901v36.9009h-36.900901z" fill="#23AC38"/>
  <path d="M922.522523 313.657658h-147.603604a9.225225 9.225225 0 0 1 0-18.450451h147.603604a9.225225 9.225225 0 0 1 0 18.450451z" fill="#23AC38"/>
  <path d="M 689.351 47.61 L 966.108 47.61 L 966.108 151.742 L 689.351 151.742 Z" fill="#D3EED7" style=""/>
  <text x="162.471" y="879.76" style="white-space: pre; fill: rgb(51, 51, 51); font-size: 24px;" transform="matrix(10.583639, 0, 0, 6.637927, -1650.337036, -4908.958008)">Ingress<tspan x="162.4709930419922" dy="1em">​</tspan></text>
</svg>