<?xml version="1.0" encoding="utf-8"?>
<svg class="icon" width="64px" height="64px" viewBox="0 0 1024 1024" version="1.1" xmlns="http://www.w3.org/2000/svg">
  <path d="M 331.746 427.869 L 512.748 246.846 L 693.791 427.869 L 512.748 608.891 Z" fill="#C4D6F8"/>
  <path d="M 515.709 234.265 M 454.269 234.265 C 454.269 281.561 505.469 311.122 546.429 287.473 C 565.439 276.498 577.149 256.215 577.149 234.265 C 577.149 186.968 525.949 157.408 484.989 181.056 C 465.979 192.031 454.269 212.314 454.269 234.265 Z" fill="#FED634"/>
  <path d="M 700.805 428.553 M 639.365 428.553 C 639.365 475.85 690.565 505.41 731.525 481.762 C 750.535 470.787 762.245 450.504 762.245 428.553 C 762.245 381.257 711.045 351.697 670.085 375.345 C 651.075 386.32 639.365 406.603 639.365 428.553 Z" fill="#FED634"/>
  <path d="M 321.306 423.23 M 259.866 423.23 C 259.866 470.526 311.066 500.087 352.026 476.438 C 371.036 465.463 382.746 445.18 382.746 423.23 C 382.746 375.933 331.546 346.373 290.586 370.021 C 271.577 380.996 259.866 401.279 259.866 423.23 Z" fill="#FED634"/>
  <path d="M 508.131 617.792 M 446.691 617.792 C 446.691 665.089 497.891 694.649 538.851 671.001 C 557.861 660.026 569.571 639.743 569.571 617.792 C 569.571 570.496 518.371 540.935 477.411 564.584 C 458.402 575.559 446.691 595.842 446.691 617.792 Z" fill="#FED634"/>
  <path d="M 873.85 386.041 L 955.77 271.345 L 892.077 181.729 L 730.9 181.729 L 647.136 145.615 L 568.903 29.916 L 441.517 29.916 L 363.898 145.615 L 279.93 180.893 L 118.138 181.729 L 54.65 271.345 L 136.57 383.031 L 136.57 462.782 L 54.65 574.635 L 118.343 664.252 L 279.52 664.252 L 363.898 700.701 L 441.517 815.228 L 568.903 815.228 L 647.136 700.701 L 726.804 664.252 L 887.776 664.252 L 955.77 574.635 L 873.85 462.782 Z M 907.232 574.301 L 864.02 631.482 L 715.13 631.482 L 617.031 677.126 L 544.736 782.625 L 465.684 782.625 L 393.799 676.792 L 289.76 631.649 L 141.895 631.649 L 102.164 574.97 L 177.53 471.978 L 177.53 373.835 L 101.754 271.011 L 141.485 215.001 L 289.76 214.164 L 393.389 170.694 L 465.479 63.355 L 544.327 63.355 L 616.826 170.694 L 720.455 214.499 L 868.116 214.499 L 908.052 270.843 L 832.89 377.012 L 832.89 471.811 Z" fill="#0459E0" style=""/>
  <path d="M 581.253 570.088 L 657.643 493.698 C 711.877 525.878 780.609 487.281 781.361 424.224 C 782.113 361.166 714.321 320.941 659.336 351.818 C 658.768 352.137 658.204 352.463 657.643 352.796 L 581.253 276.405 C 613.433 222.172 574.836 153.44 511.779 152.688 C 448.721 151.936 408.496 219.727 439.373 274.713 C 439.692 275.281 440.018 275.845 440.351 276.405 L 363.96 352.796 C 309.727 320.615 240.995 359.212 240.243 422.27 C 239.49 485.327 307.282 525.552 362.268 494.675 C 362.836 494.356 363.4 494.03 363.96 493.698 L 440.351 570.088 C 408.17 624.322 446.767 693.054 509.825 693.806 C 572.882 694.558 613.107 626.766 582.23 571.781 C 581.911 571.213 581.585 570.649 581.253 570.088 Z M 728.095 394.37 C 750.378 416.678 740.156 454.743 709.695 462.887 C 679.233 471.031 651.379 443.146 659.557 412.694 C 661.418 405.765 665.066 399.446 670.136 394.37 C 686.136 378.353 712.095 378.353 728.095 394.37 Z M 482.335 205.954 C 504.643 183.671 542.708 193.893 550.852 224.354 C 558.996 254.815 531.11 282.669 500.658 274.492 C 493.729 272.631 487.41 268.983 482.335 263.912 C 466.204 248.026 466.02 222.067 481.925 205.954 Z M 293.919 451.714 C 271.635 429.406 281.857 391.341 312.318 383.197 C 342.78 375.053 370.634 402.938 362.456 433.39 C 360.595 440.319 356.947 446.638 351.877 451.714 C 335.946 468.12 309.668 468.304 293.509 452.124 Z M 469.842 541.212 L 392.837 464.207 C 407.471 438.861 407.471 407.633 392.837 382.287 L 469.842 305.282 C 495.188 319.916 526.416 319.916 551.762 305.282 L 628.767 382.287 C 614.133 407.633 614.133 438.861 628.767 464.207 L 551.762 541.212 C 526.416 526.578 495.188 526.578 469.842 541.212 Z M 482.335 640.54 C 459.972 618.31 470.06 580.209 500.492 571.958 C 530.925 563.706 558.877 591.493 550.807 621.974 C 548.946 629.004 545.246 635.412 540.088 640.54 C 524.066 656.694 497.948 656.694 481.925 640.54 Z" fill="#0459E0"/>
  <text x="325.569" y="426.636" style="white-space: pre; fill: rgb(51, 51, 51); font-size: 24px;" transform="matrix(4.782421, 0, 0, 5.595217, -1364.817993, -1408.283936)">Logic Layer<tspan x="325.5690002441406" dy="1em">​</tspan></text>
</svg>